<svg width="192" height="64" viewBox="0 0 192 64" fill="none" xmlns="http://www.w3.org/2000/svg">
<g filter="url(#filter0_d_942_9580)">
<path d="M46.0911 11.8043H17.5173C14.3604 11.8043 11.8042 14.3605 11.8042 17.5174V46.0911C11.8042 49.2481 14.3604 51.8043 17.5173 51.8043H46.0911C49.244 51.8043 51.8042 49.2481 51.8042 46.0911V17.5174C51.8042 14.3605 49.244 11.8043 46.0911 11.8043Z" fill="#FF4900"/>
</g>
<path d="M37.0477 32.4877C38.2008 33.7496 38.9023 35.4269 38.9023 37.2654H36.5921C36.5921 39.5031 35.0519 41.386 32.9755 41.9101V45.446H30.8023V44.297C27.3591 43.8091 24.7021 40.8417 24.7021 37.2654H29.3267C29.3267 38.6322 30.4354 39.741 31.8022 39.741C33.169 39.741 34.2778 38.6322 34.2778 37.2654C34.2778 35.9873 33.3061 34.931 32.0562 34.806L31.8022 34.81L31.5482 34.806C30.3992 34.7657 29.3226 34.4512 28.3752 33.927C27.6938 33.548 27.0769 33.0602 26.5568 32.4877C25.4037 31.2257 24.7021 29.5485 24.7021 27.7099H27.0164C27.0164 25.4118 28.6413 23.4886 30.8023 23.0289V19.5253H32.9755V20.7066C36.334 21.267 38.9023 24.1942 38.9023 27.7099H34.2778C34.2778 26.3431 33.169 25.2344 31.8022 25.2344C30.4354 25.2344 29.3267 26.3431 29.3267 27.7099C29.3267 28.9921 30.3024 30.0444 31.5482 30.1734L31.8022 30.1653L32.0603 30.1734C33.2053 30.2137 34.2818 30.5282 35.2293 31.0483C35.9147 31.4273 36.5276 31.9151 37.0477 32.4877Z" fill="white"/>
<path d="M43.5549 31.1531C46.7885 35.8018 45.6394 42.2124 40.9907 45.446L39.0796 42.7003C42.2123 40.5191 42.9905 36.1969 40.8093 33.0642L43.5549 31.1531Z" fill="white"/>
<path d="M19.5617 32.4877C16.7193 27.4277 18.5255 21.001 23.5855 18.1625L25.2628 21.1501C21.8518 23.0653 20.6342 27.3995 22.5493 30.8105L19.5617 32.4877Z" fill="white"/>
<path d="M77.3677 36.5311V39.1094C76.3779 39.5559 75.1984 39.7808 73.8361 39.7808C69.8148 39.7808 67.8042 37.8874 67.8042 34.0972C67.8042 32.3918 68.3008 31.0456 69.2906 30.062C70.2804 29.075 71.76 28.5848 73.7292 28.5848C74.9639 28.5848 76.1261 28.7796 77.2194 29.1723V31.7741C76.2123 31.4115 75.2432 31.2303 74.3121 31.2303C72.2014 31.2303 71.1461 32.1602 71.1461 34.02C71.1461 35.0674 71.4358 35.8496 72.0186 36.3566C72.6015 36.8635 73.4947 37.122 74.7018 37.122C75.7295 37.1186 76.6193 36.9239 77.3677 36.5311Z" fill="white"/>
<path d="M88.9558 33.0295V39.5289H85.9622V37.998H85.9208C85.6622 38.4882 85.2414 38.8977 84.662 39.2234C84.0792 39.5524 83.3446 39.7169 82.4548 39.7169C81.2753 39.7169 80.351 39.4282 79.6751 38.8474C78.9991 38.2666 78.6611 37.4542 78.6611 36.4034C78.6611 35.272 79.0681 34.4395 79.8786 33.909C80.689 33.3786 81.9513 33.1134 83.6584 33.1134C84.4068 33.1134 85.1 33.1705 85.7484 33.2813V32.7978C85.7484 32.2372 85.5725 31.831 85.2207 31.5725C84.8689 31.314 84.262 31.1831 83.3998 31.1831C82.0651 31.1831 80.8373 31.455 79.7165 32.0022V29.4004C80.9787 28.8566 82.3927 28.5813 83.9585 28.5813C85.7518 28.5813 87.0348 28.9204 87.8039 29.5985C88.5695 30.28 88.9558 31.4214 88.9558 33.0295ZM85.7449 35.5037V34.98C85.2 34.896 84.6517 34.8558 84.1068 34.8558C82.6548 34.8558 81.9306 35.2553 81.9306 36.0509C81.9306 36.9036 82.4962 37.33 83.6308 37.33C84.3344 37.33 84.862 37.1688 85.2138 36.8465C85.569 36.5242 85.7449 36.0777 85.7449 35.5037Z" fill="white"/>
<path d="M91.0009 39.1732V36.6151C92.0045 37.1321 93.184 37.3906 94.5324 37.3906C95.6085 37.3906 96.1465 37.0616 96.1465 36.4036C96.1465 36.1249 95.9602 35.8966 95.5878 35.7221C95.2153 35.5475 94.7669 35.3931 94.2427 35.2622C93.7185 35.1312 93.1943 34.9634 92.6701 34.7586C92.1459 34.5572 91.6975 34.2147 91.3251 33.7313C90.9526 33.2479 90.7664 32.6436 90.7664 31.9185C90.7664 29.696 92.3459 28.5848 95.505 28.5848C96.6396 28.5848 97.7226 28.7258 98.7572 29.0045V31.4585C97.895 31.1363 96.8845 30.9751 95.7188 30.9751C94.629 30.9751 94.0806 31.247 94.0806 31.7942C94.0806 32.0326 94.2117 32.224 94.4807 32.3717C94.7463 32.5194 95.0808 32.6302 95.4808 32.7074C95.8844 32.7846 96.312 32.8987 96.7741 33.0532C97.2328 33.2076 97.6639 33.3889 98.0674 33.597C98.4709 33.8052 98.802 34.1409 99.0676 34.6042C99.3331 35.0641 99.4676 35.618 99.4676 36.2592C99.4676 38.6092 97.8433 39.7808 94.598 39.7808C93.3633 39.7808 92.1631 39.5794 91.0009 39.1732Z" fill="white"/>
<path d="M111.959 32.8618V39.529H108.748V33.9931C108.748 32.9591 108.607 32.2508 108.328 31.8647C108.048 31.482 107.534 31.2873 106.786 31.2873C105.969 31.2873 105.368 31.5559 104.989 32.093C104.61 32.6301 104.417 33.4593 104.417 34.5773V39.5257H101.206V23.8043H104.417V30.3238H104.458C105.203 29.2059 106.396 28.6452 108.034 28.6452C109.341 28.6452 110.321 28.9843 110.976 29.6624C111.631 30.3406 111.959 31.4081 111.959 32.8618Z" fill="white"/>
<path d="M124.992 32.8618V39.529H121.781V33.9931C121.781 32.9591 121.64 32.2508 121.36 31.8647C121.081 31.482 120.567 31.2873 119.819 31.2873C119.001 31.2873 118.401 31.5559 118.022 32.093C117.642 32.6301 117.449 33.4593 117.449 34.5773V39.5257H114.239V23.8043H117.449V30.3238H117.491C118.236 29.2059 119.429 28.6452 121.067 28.6452C122.374 28.6452 123.354 28.9843 124.009 29.6624C124.664 30.3406 124.992 31.4081 124.992 32.8618Z" fill="white"/>
<path d="M127.092 35.5911V28.9238H130.303V34.4597C130.303 35.4937 130.445 36.2021 130.724 36.5881C131.003 36.9708 131.517 37.1656 132.265 37.1656C133.845 37.1656 134.635 36.0678 134.635 33.8722V28.9238H137.846V39.6163H134.635V38.1056H134.593C133.831 39.2369 132.641 39.8043 131.017 39.8043C128.399 39.8043 127.092 38.401 127.092 35.5911Z" fill="white"/>
<path d="M151.054 32.8617V39.529H147.844V33.9931C147.844 32.9591 147.702 32.2508 147.423 31.8647C147.143 31.482 146.63 31.2873 145.881 31.2873C145.064 31.2873 144.464 31.5558 144.084 32.093C143.705 32.6301 143.512 33.4593 143.512 34.5772V39.5256H140.301V28.8366H143.512V30.3238H143.553C144.298 29.2058 145.491 28.6452 147.13 28.6452C149.747 28.6486 151.054 30.0518 151.054 32.8617Z" fill="white"/>
<path d="M160.638 28.8368V31.4788H157.6V35.1683C157.6 35.8398 157.721 36.3165 157.966 36.5951C158.211 36.8737 158.669 37.0147 159.345 37.0147C159.835 37.0147 160.273 36.9241 160.659 36.7428V39.3647C160.114 39.6434 159.325 39.7844 158.29 39.7844C156.897 39.7844 155.9 39.4889 155.296 38.8947C154.693 38.3005 154.393 37.4042 154.393 36.199V31.4788H152.434V28.8368H154.393V26.5707L157.604 25.5233V28.8368H160.638Z" fill="white"/>
<path d="M172.206 36.4873V38.8776C171.888 39.1159 171.354 39.3241 170.602 39.5054C169.847 39.6867 169.026 39.7773 168.136 39.7773C165.995 39.7773 164.425 39.2939 163.418 38.3304C162.411 37.3669 161.911 35.9334 161.911 34.0333C161.911 32.3278 162.411 30.9917 163.408 30.0282C164.405 29.0647 165.794 28.5813 167.577 28.5813C169.457 28.5813 170.823 29.0815 171.671 30.0819C172.52 31.0824 172.94 32.4051 172.94 34.0534V34.8725H165.208C165.322 35.7118 165.643 36.3228 166.167 36.7055C166.691 37.0916 167.477 37.283 168.526 37.283C170.074 37.2863 171.302 37.0211 172.206 36.4873ZM165.205 33.0933H169.705C169.719 32.4521 169.55 31.9384 169.198 31.5524C168.847 31.1696 168.319 30.9749 167.615 30.9749C166.212 30.9749 165.405 31.6799 165.205 33.0933Z" fill="white"/>
<path d="M177.958 34.7887V39.529H174.747V28.8366H177.827V30.5755H177.868C178.458 29.2898 179.434 28.6452 180.796 28.6452C181.255 28.6452 181.686 28.6956 182.09 28.7929V31.623C181.704 31.482 181.228 31.4148 180.669 31.4148C179.679 31.4148 178.979 31.6868 178.569 32.234C178.162 32.7778 177.958 33.6305 177.958 34.7887Z" fill="white"/>
<defs>
<filter id="filter0_d_942_9580" x="-3.91006e-05" y="2.19345e-05" width="63.6085" height="63.6085" filterUnits="userSpaceOnUse" color-interpolation-filters="sRGB">
<feFlood flood-opacity="0" result="BackgroundImageFix"/>
<feColorMatrix in="SourceAlpha" type="matrix" values="0 0 0 0 0 0 0 0 0 0 0 0 0 0 0 0 0 0 127 0" result="hardAlpha"/>
<feOffset/>
<feGaussianBlur stdDeviation="5.90212"/>
<feComposite in2="hardAlpha" operator="out"/>
<feColorMatrix type="matrix" values="0 0 0 0 1 0 0 0 0 0.411765 0 0 0 0 0.0313726 0 0 0 1 0"/>
<feBlend mode="normal" in2="BackgroundImageFix" result="effect1_dropShadow_942_9580"/>
<feBlend mode="normal" in="SourceGraphic" in2="effect1_dropShadow_942_9580" result="shape"/>
</filter>
</defs>
</svg>
