<svg width="24" height="24" viewBox="0 0 24 24" fill="none" xmlns="http://www.w3.org/2000/svg">
<path d="M20 20V9.78003" stroke="white" stroke-width="1.5" stroke-linecap="round" stroke-linejoin="round"/>
<path fill-rule="evenodd" clip-rule="evenodd" d="M4.301 9.778C2.603 9.766 1.496 8.085 2.232 6.636L3.948 3.259C4.338 2.489 5.16 2 6.062 2H17.938C18.84 2 19.662 2.489 20.053 3.259L21.769 6.636C22.505 8.085 21.398 9.766 19.7 9.778C18.283 9.778 17.134 8.81 17.134 7.615V7.567C17.134 8.788 15.985 9.778 14.568 9.778C13.149 9.778 12 8.788 12 7.567C12 8.788 10.851 9.778 9.434 9.778C8.017 9.778 6.868 8.788 6.868 7.567V7.615C6.867 8.81 5.718 9.778 4.301 9.778Z" stroke="white" stroke-width="1.5" stroke-linecap="round" stroke-linejoin="round"/>
<path d="M16 20H21" stroke="white" stroke-width="1.5" stroke-linecap="round" stroke-linejoin="round"/>
<path d="M4.6 14.95H11L10.3 18.45H5.3L4.3 13.45H3.05" stroke="white" stroke-width="1.5" stroke-linecap="round" stroke-linejoin="round"/>
<path d="M9.835 20.915C9.855 20.935 9.855 20.966 9.835 20.986C9.815 21.006 9.784 21.006 9.764 20.986C9.744 20.966 9.744 20.935 9.764 20.915C9.784 20.895 9.816 20.895 9.835 20.915" stroke="white" stroke-width="1.5" stroke-linecap="round" stroke-linejoin="round"/>
<path d="M5.835 20.915C5.855 20.935 5.855 20.966 5.835 20.986C5.815 21.006 5.784 21.006 5.764 20.986C5.744 20.966 5.744 20.935 5.764 20.915C5.784 20.895 5.816 20.895 5.835 20.915" stroke="white" stroke-width="1.5" stroke-linecap="round" stroke-linejoin="round"/>
</svg>
